<svg width="133" height="122" viewBox="0 0 133 122" fill="none" xmlns="http://www.w3.org/2000/svg">
<g id="Frame 703" opacity="0.55">
<g id="Vector" filter="url(#filter0_b_641_368)">
<path d="M27.0278 -28.2076C28.0724 -29.147 29.1432 -30.0277 30.2707 -30.8622C35.3447 -34.6177 41.142 -37.2729 47.2859 -38.6552C53.4298 -40.0375 59.7829 -40.116 65.9324 -38.8857C66.6074 -38.7514 67.2063 -38.3722 67.6142 -37.821C68.0221 -37.2697 68.2102 -36.5852 68.1423 -35.899C67.542 -29.6425 65.6261 -23.5697 62.5203 -18.0787C59.4145 -12.5877 55.1888 -7.80245 50.1202 -4.03646C45.0516 -0.270464 39.2544 2.39122 33.1086 3.77418C26.9629 5.15713 20.6072 5.23014 14.4581 3.98842C13.7838 3.85422 13.1854 3.47562 12.7775 2.92518C12.3697 2.37475 12.1811 1.69122 12.248 1.00563C13.3478 -10.2026 18.6237 -20.6308 27.0278 -28.2076Z" fill="url(#paint0_linear_641_368)" fill-opacity="0.6"/>
</g>
<g id="Vector_2" filter="url(#filter1_b_641_368)">
<path d="M26.4184 9.70717C36.4019 20.7911 50.1331 27.8078 65.0296 29.4376C79.926 31.0674 94.961 27.1979 107.307 18.557C107.881 18.1646 108.29 17.5733 108.453 16.8993C108.616 16.2254 108.522 15.5175 108.188 14.9147C103.87 6.90885 97.8044 -0.0129553 90.4355 -5.3442C83.0667 -10.6754 74.5809 -14.2812 65.599 -15.8978C56.6172 -17.5143 47.3666 -17.1006 38.5241 -14.687C29.6816 -12.2734 21.4709 -7.9209 14.4929 -1.94807L13.1721 -0.820058C18.2393 1.78871 22.7387 5.36448 26.4184 9.70717Z" fill="url(#paint1_linear_641_368)" fill-opacity="0.6"/>
</g>
<g id="Vector_3" filter="url(#filter2_b_641_368)">
<path d="M13.3917 -0.583682C13.9059 -1.04609 14.5709 -1.30455 15.2593 -1.30958C25.0947 -1.38817 34.8147 0.607657 43.7838 4.5474C52.7529 8.48714 60.7691 14.2821 67.3084 21.5534C73.8478 28.8247 78.7629 37.4086 81.7325 46.7439C84.7021 56.0792 85.6592 65.9557 84.5414 75.7276C84.4636 76.4116 84.1363 77.0455 83.6221 77.5079C83.1079 77.9704 82.443 78.2289 81.7546 78.2339C71.9192 78.3125 62.1992 76.3167 53.2301 72.377C44.261 68.4372 36.2448 62.6423 29.7055 55.371C23.1661 48.0997 18.251 39.5158 15.2814 30.1805C12.3118 20.8452 11.3546 10.9687 12.4724 1.19672C12.5502 0.512706 12.8775 -0.121205 13.3917 -0.583682Z" fill="url(#paint2_linear_641_368)" fill-opacity="0.6"/>
</g>
<g id="Vector_4" filter="url(#filter3_b_641_368)">
<path d="M22.2413 13.4638C32.2078 24.563 37.7337 38.959 37.7797 53.9443C37.8258 68.9295 32.3887 83.4713 22.4911 94.8347C22.0402 95.3643 21.4091 95.7084 20.7217 95.7993C20.0342 95.8901 19.3403 95.7213 18.7762 95.3258C11.2716 90.1855 5.02974 83.4224 0.507285 75.5313C-4.01517 67.6402 -6.70378 58.8208 -7.3618 49.7184C-8.01983 40.616 -6.63063 31.4609 -3.29585 22.9231C0.0389274 14.3853 5.23492 6.68071 11.9119 0.373149L13.1732 -0.821019C15.2317 4.49355 18.3119 9.34565 22.2413 13.4638Z" fill="url(#paint3_linear_641_368)" fill-opacity="0.6"/>
</g>
<g id="Vector_5" filter="url(#filter4_b_641_368)">
<path d="M15.0885 -1.54898C15.7773 -1.543 16.4371 -1.28323 16.9413 -0.819475C17.4456 -0.355718 17.7588 0.279398 17.821 0.964111C18.4057 7.20998 17.6613 13.5223 15.6365 19.4875C13.6116 25.4526 10.3521 30.936 6.07139 35.5781C1.79071 40.2203 -3.41444 43.9164 -9.20296 46.4244C-14.9915 48.9324 -21.2327 50.1956 -27.5177 50.1312C-28.2072 50.1262 -28.868 49.8668 -29.373 49.4029C-29.8781 48.9391 -30.1919 48.3034 -30.2541 47.6179C-30.8275 41.3729 -30.0778 35.0637 -28.0538 29.1003C-26.0298 23.1369 -22.7767 17.6528 -18.5059 13.0042C-17.5506 11.9656 -16.5595 10.992 -15.5233 10.0601C-7.10065 2.50399 3.8268 -1.64008 15.0885 -1.54898Z" fill="url(#paint4_linear_641_368)" fill-opacity="0.6"/>
</g>
</g>
<defs>
<filter id="filter0_b_641_368" x="7.56623" y="-44.4219" width="65.2582" height="53.9591" filterUnits="userSpaceOnUse" color-interpolation-filters="sRGB">
<feFlood flood-opacity="0" result="BackgroundImageFix"/>
<feGaussianBlur in="BackgroundImageFix" stdDeviation="2.33425"/>
<feComposite in2="SourceAlpha" operator="in" result="effect1_backgroundBlur_641_368"/>
<feBlend mode="normal" in="SourceGraphic" in2="effect1_backgroundBlur_641_368" result="shape"/>
</filter>
<filter id="filter1_b_641_368" x="8.50361" y="-21.5337" width="104.696" height="56.0045" filterUnits="userSpaceOnUse" color-interpolation-filters="sRGB">
<feFlood flood-opacity="0" result="BackgroundImageFix"/>
<feGaussianBlur in="BackgroundImageFix" stdDeviation="2.33425"/>
<feComposite in2="SourceAlpha" operator="in" result="effect1_backgroundBlur_641_368"/>
<feBlend mode="normal" in="SourceGraphic" in2="effect1_backgroundBlur_641_368" result="shape"/>
</filter>
<filter id="filter2_b_641_368" x="7.35102" y="-5.98052" width="82.3118" height="88.8854" filterUnits="userSpaceOnUse" color-interpolation-filters="sRGB">
<feFlood flood-opacity="0" result="BackgroundImageFix"/>
<feGaussianBlur in="BackgroundImageFix" stdDeviation="2.33425"/>
<feComposite in2="SourceAlpha" operator="in" result="effect1_backgroundBlur_641_368"/>
<feBlend mode="normal" in="SourceGraphic" in2="effect1_backgroundBlur_641_368" result="shape"/>
</filter>
<filter id="filter3_b_641_368" x="-12.1894" y="-5.48931" width="54.6379" height="105.981" filterUnits="userSpaceOnUse" color-interpolation-filters="sRGB">
<feFlood flood-opacity="0" result="BackgroundImageFix"/>
<feGaussianBlur in="BackgroundImageFix" stdDeviation="2.33425"/>
<feComposite in2="SourceAlpha" operator="in" result="effect1_backgroundBlur_641_368"/>
<feBlend mode="normal" in="SourceGraphic" in2="effect1_backgroundBlur_641_368" result="shape"/>
</filter>
<filter id="filter4_b_641_368" x="-35.1094" y="-6.2188" width="57.7923" height="61.0211" filterUnits="userSpaceOnUse" color-interpolation-filters="sRGB">
<feFlood flood-opacity="0" result="BackgroundImageFix"/>
<feGaussianBlur in="BackgroundImageFix" stdDeviation="2.33425"/>
<feComposite in2="SourceAlpha" operator="in" result="effect1_backgroundBlur_641_368"/>
<feBlend mode="normal" in="SourceGraphic" in2="effect1_backgroundBlur_641_368" result="shape"/>
</filter>
<linearGradient id="paint0_linear_641_368" x1="83.0666" y1="-48.6033" x2="3.55289" y2="-10.1405" gradientUnits="userSpaceOnUse">
<stop offset="0.203113" stop-color="#9FE8D6"/>
<stop offset="0.687508" stop-color="#96E0F7" stop-opacity="0.6"/>
<stop offset="1" stop-color="#94CBFF" stop-opacity="0"/>
</linearGradient>
<linearGradient id="paint1_linear_641_368" x1="106.109" y1="-15.3313" x2="38.4801" y2="32.8103" gradientUnits="userSpaceOnUse">
<stop offset="0.203113" stop-color="#9FE8D6"/>
<stop offset="0.687508" stop-color="#96E0F7" stop-opacity="0.6"/>
<stop offset="1" stop-color="#94CBFF" stop-opacity="0"/>
</linearGradient>
<linearGradient id="paint2_linear_641_368" x1="89.1313" y1="25.0489" x2="35.4201" y2="67.0511" gradientUnits="userSpaceOnUse">
<stop offset="0.203113" stop-color="#9FE8D6"/>
<stop offset="0.687508" stop-color="#96E0F7" stop-opacity="0.6"/>
<stop offset="1" stop-color="#94CBFF" stop-opacity="0"/>
</linearGradient>
<linearGradient id="paint3_linear_641_368" x1="60.1394" y1="26.0105" x2="-7.48921" y2="74.152" gradientUnits="userSpaceOnUse">
<stop offset="0.203113" stop-color="#9FE8D6"/>
<stop offset="0.687508" stop-color="#96E0F7" stop-opacity="0.6"/>
<stop offset="1" stop-color="#94CBFF" stop-opacity="0"/>
</linearGradient>
<linearGradient id="paint4_linear_641_368" x1="36.6548" y1="-6.86358" x2="-42.859" y2="31.5993" gradientUnits="userSpaceOnUse">
<stop offset="0.203113" stop-color="#9FE8D6"/>
<stop offset="0.687508" stop-color="#96E0F7" stop-opacity="0.6"/>
<stop offset="1" stop-color="#94CBFF" stop-opacity="0"/>
</linearGradient>
</defs>
</svg>
