<svg width="21" height="17" viewBox="0 0 21 17" fill="none" xmlns="http://www.w3.org/2000/svg">
<path fill-rule="evenodd" clip-rule="evenodd" d="M1.44364 7.31839C7.08077 4.9193 10.8397 3.33767 12.7206 2.5735C18.0907 0.391658 19.2065 0.0126486 19.9338 0.000133439C20.0938 -0.00261913 20.4514 0.0361057 20.6831 0.219742C20.8787 0.374801 20.9326 0.584264 20.9583 0.731277C20.9841 0.87829 21.0162 1.21319 20.9907 1.47487C20.6997 4.46165 19.4405 11.7098 18.7999 15.055C18.5288 16.4705 17.9951 16.9451 17.4784 16.9916C16.3554 17.0925 15.5027 16.2667 14.4151 15.5702C12.7132 14.4805 11.7517 13.8021 10.0997 12.7387C8.19056 11.5097 9.42819 10.8343 10.5162 9.73037C10.801 9.44148 15.7487 5.04547 15.8444 4.64668C15.8564 4.59681 15.8675 4.41089 15.7544 4.31273C15.6414 4.21456 15.4745 4.24813 15.3541 4.27483C15.1834 4.31267 12.4646 6.06807 7.19761 9.54101C6.42588 10.0587 5.72687 10.3109 5.10058 10.2977C4.41015 10.2831 3.08204 9.91632 2.09473 9.60282C0.883743 9.2183 -0.0787216 9.01501 0.00508745 8.36197C0.0487404 8.02183 0.528258 7.67397 1.44364 7.31839Z" fill="white"/>
<path fill-rule="evenodd" clip-rule="evenodd" d="M1.82058 8.24476L1.80573 8.25053C1.69622 8.29307 1.59772 8.33394 1.50945 8.37291C1.52328 8.37741 1.53733 8.38195 1.55161 8.38654C1.69848 8.43376 1.82165 8.47147 1.95481 8.51223C2.08305 8.55148 2.22055 8.59357 2.39736 8.64972C2.87754 8.80219 3.4337 8.96535 3.9469 9.09105C4.48274 9.22231 4.8951 9.2931 5.12168 9.29788C5.46498 9.30513 5.96136 9.16612 6.64055 8.71054L6.64711 8.70614C9.28126 6.96922 11.281 5.66003 12.6445 4.77965C13.3256 4.33989 13.8521 4.00453 14.221 3.77558C14.4045 3.66169 14.5555 3.57007 14.6699 3.50392C14.7262 3.47138 14.7824 3.43986 14.8335 3.41346C14.8338 3.41331 14.8344 3.413 14.8352 3.41254C14.8527 3.4032 14.9849 3.33239 15.1376 3.29853C15.14 3.29801 15.1425 3.29744 15.1453 3.29682C15.207 3.28303 15.3749 3.24553 15.5646 3.24698C15.775 3.24859 16.1109 3.29788 16.41 3.55762C16.7168 3.82399 16.8067 4.16139 16.835 4.34784C16.8631 4.53281 16.8547 4.72233 16.8168 4.88018C16.7767 5.04695 16.7031 5.17038 16.6759 5.21521C16.6382 5.27717 16.5983 5.3321 16.5653 5.37507C16.4987 5.4618 16.419 5.55343 16.3384 5.64177C16.1747 5.82113 15.9571 6.04181 15.7119 6.28239C15.2187 6.76629 14.5732 7.3707 13.9292 7.96474C13.2838 8.56017 12.633 9.15159 12.1277 9.61052L12.0542 9.67731C11.8325 9.87858 11.6429 10.0508 11.4974 10.1837C11.4166 10.2575 11.3511 10.3176 11.3021 10.3631C11.2532 10.4085 11.2325 10.4284 11.229 10.4318C11.2286 10.4321 11.229 10.4318 11.229 10.4318C11.0789 10.5841 10.9282 10.7269 10.7935 10.8539C10.7779 10.8686 10.7625 10.8831 10.7474 10.8973C10.6279 11.0098 10.5243 11.1075 10.4286 11.2025C10.2832 11.3471 10.1981 11.4464 10.1494 11.5124C10.2204 11.5897 10.3641 11.7196 10.641 11.8978C11.4371 12.4103 12.0744 12.8342 12.7043 13.2533L12.7925 13.3119C13.4514 13.7502 14.1112 14.1882 14.9544 14.7281C15.1986 14.8845 15.4334 15.0481 15.644 15.1947C15.6852 15.2234 15.7255 15.2515 15.7648 15.2787C16.0142 15.4519 16.2271 15.5954 16.4312 15.7126C16.8254 15.9388 17.1045 16.0172 17.3732 15.9969C17.3853 15.9879 17.4072 15.9678 17.4387 15.9269C17.5398 15.7955 17.6982 15.4911 17.8177 14.8669C18.459 11.5181 19.7094 4.3126 19.9954 1.3779C20.0012 1.31848 20.0019 1.22623 19.9955 1.11969C19.9929 1.07582 19.9895 1.03603 19.986 1.00248C19.9853 1.0024 19.9846 1.00233 19.9838 1.00225C19.9627 1.00008 19.9505 1.00003 19.9505 0.999998C19.9505 0.999994 19.9501 1 19.9505 0.999998C19.7625 1.00323 19.4352 1.04976 18.4023 1.41586C17.3861 1.77607 15.7856 2.40758 13.097 3.49996C11.2251 4.2605 7.47367 5.83888 1.83524 8.23853L1.82058 8.24476ZM17.3621 16.0033C17.362 16.0029 17.3645 16.0012 17.3696 15.9995C17.3647 16.0027 17.3622 16.0036 17.3621 16.0033ZM14.8024 5.77223C13.8054 6.73608 12.3196 8.08548 11.3816 8.93727C10.9149 9.36108 10.5839 9.66171 10.5162 9.73037C10.3646 9.88417 10.2101 10.0297 10.0616 10.1695C9.1444 11.0332 8.45656 11.6809 10.0997 12.7387C10.8894 13.247 11.5212 13.6673 12.1516 14.0866C12.84 14.5446 13.5267 15.0014 14.4151 15.5702C14.6414 15.7152 14.8576 15.8657 15.0682 16.0123C15.8693 16.5703 16.5891 17.0715 17.4784 16.9916C17.9951 16.9451 18.5288 16.4705 18.7999 15.055C19.4405 11.7098 20.6997 4.46165 20.9907 1.47487C21.0162 1.21319 20.9841 0.87829 20.9583 0.731277C20.9326 0.584264 20.8787 0.374801 20.6831 0.219742C20.4514 0.0361057 20.0938 -0.00261913 19.9338 0.000133439C19.2065 0.0126486 18.0907 0.391658 12.7206 2.5735C10.8397 3.33767 7.08077 4.9193 1.44364 7.31839C0.528258 7.67397 0.0487404 8.02183 0.00508745 8.36197C-0.0686866 8.93681 0.668259 9.16317 1.67179 9.47141C1.80829 9.51334 1.94973 9.55678 2.09473 9.60282C3.08204 9.91632 4.41015 10.2831 5.10058 10.2977C5.72687 10.3109 6.42588 10.0587 7.19761 9.54101C10.5693 7.31774 12.8968 5.79835 14.18 4.98284C14.4502 4.81113 14.6741 4.67062 14.8517 4.56132C14.9183 4.52035 14.9783 4.48377 15.0319 4.45157C15.2169 4.34034 15.3243 4.28143 15.3541 4.27483C15.4745 4.24813 15.6414 4.21456 15.7544 4.31273C15.8675 4.41089 15.8564 4.59681 15.8444 4.64668C15.8305 4.70453 15.7145 4.84651 15.5255 5.04786C15.4763 5.10018 15.4223 5.15651 15.3638 5.21642C15.2056 5.37841 15.0151 5.56654 14.8024 5.77223ZM15.7509 5.19064C15.7744 5.17849 15.7702 5.18222 15.7467 5.19286C15.7483 5.192 15.7497 5.19126 15.7509 5.19064Z" fill="white"/>
</svg>
