<svg width="25" height="24" viewBox="0 0 25 24" fill="none" xmlns="http://www.w3.org/2000/svg">
<path fill-rule="evenodd" clip-rule="evenodd" d="M1.76605 17.8375L0 24L6.59863 22.3463C8.41679 23.2938 10.4637 23.7932 12.5468 23.794H12.5522C19.4125 23.794 24.997 18.4584 25 11.9015C25.0012 8.72376 23.708 5.73581 21.3576 3.48789C19.0072 1.23997 15.882 0.00161686 12.5524 0C5.69099 0 0.107428 5.33466 0.104552 11.892C0.101917 13.979 0.675007 16.0297 1.76605 17.8375ZM2.2079 11.8926C2.20993 6.4427 6.85101 2.00879 12.5579 2.00879C13.9171 2.00574 15.2634 2.26038 16.519 2.75797C17.7745 3.25556 18.9143 3.98622 19.8723 4.90765C20.8357 5.82404 21.5994 6.91397 22.1191 8.11434C22.6387 9.31471 22.9041 10.6017 22.8998 11.9007C22.8976 17.351 18.2565 21.7854 12.554 21.7854H12.5501C10.6932 21.7844 8.87235 21.3079 7.28427 20.4072L6.90616 20.1931L2.99035 21.1744L4.03571 17.5269L3.78955 17.1531C2.75344 15.5774 2.20509 13.7536 2.2079 11.8926Z" fill="white"/>
<path fill-rule="evenodd" clip-rule="evenodd" d="M9.44256 6.92009C9.20943 6.42517 8.96412 6.41515 8.74267 6.40658L8.14648 6.39963C7.93907 6.39963 7.60207 6.474 7.31717 6.7715C7.03227 7.06901 6.22851 7.78802 6.22851 9.25047C6.22851 10.7129 7.34306 12.1261 7.49836 12.3246C7.65367 12.5232 9.64997 15.6199 12.8114 16.8114C15.4386 17.8015 15.9732 17.6046 16.5437 17.5551C17.1141 17.5057 18.3838 16.8361 18.6428 16.142C18.9018 15.4479 18.902 14.8532 18.8243 14.7289C18.7467 14.6045 18.5393 14.5306 18.228 14.3819C17.9167 14.2331 16.3878 13.5141 16.1028 13.4149C15.8177 13.3156 15.6105 13.2663 15.4029 13.5638C15.1953 13.8613 14.6 14.5305 14.4184 14.7289C14.2369 14.9273 14.0557 14.9522 13.7444 14.8036C13.4331 14.655 12.4316 14.341 11.2433 13.3284C10.3187 12.5405 9.69464 11.5674 9.51294 11.2701C9.33124 10.9728 9.49365 10.8117 9.64963 10.6636C9.78921 10.5304 9.96058 10.3165 10.1164 10.143C10.2722 9.96949 10.3235 9.84548 10.427 9.64741C10.5305 9.44935 10.4789 9.27537 10.4011 9.12678C10.3233 8.97819 9.719 7.50798 9.44256 6.92009Z" fill="white"/>
</svg>
