<svg width="580" height="516" viewBox="0 0 580 516" fill="none" xmlns="http://www.w3.org/2000/svg">
<g filter="url(#filter0_b_808_53)">
<path d="M162.793 516C156.548 516 150.39 515.729 144.182 515.137C116.246 512.476 89.1896 504.047 64.7715 490.396C40.3534 476.745 19.1197 458.18 2.4499 435.905C0.61787 433.462 -0.234786 430.438 0.0557038 427.413C0.346193 424.388 1.75934 421.575 4.02373 419.516C24.6073 400.681 48.9929 386.349 75.5827 377.461C102.172 368.572 130.366 365.327 158.316 367.938C186.266 370.548 213.341 378.956 237.767 392.61C262.193 406.264 283.419 424.856 300.053 447.167C301.883 449.607 302.736 452.628 302.448 455.65C302.16 458.672 300.751 461.483 298.492 463.544C261.537 497.213 213.097 515.938 162.793 516Z" fill="url(#paint0_linear_808_53)" fill-opacity="0.6"/>
<path d="M277.519 392.886C277.468 326.786 252.938 262.98 208.543 213.472C164.147 163.963 102.946 132.161 36.4484 124.049C33.3835 123.64 30.2744 124.377 27.732 126.114C25.1896 127.852 23.3978 130.464 22.7086 133.439C13.183 172.611 12.6556 213.389 21.1649 252.789C29.6742 292.189 47.005 329.213 71.8891 361.153C96.7733 393.093 128.581 419.14 164.985 437.389C201.389 455.638 241.469 465.626 282.29 466.624L290.01 466.821C281.015 443.211 276.772 418.098 277.519 392.886Z" fill="url(#paint1_linear_808_53)" fill-opacity="0.6"/>
<path d="M289.987 465.391C286.912 465.391 283.946 464.272 281.655 462.249C248.911 433.365 222.714 397.988 204.779 358.431C186.843 318.874 177.572 276.029 177.572 232.695C177.572 189.361 186.843 146.516 204.779 106.959C222.714 67.4025 248.911 32.0256 281.655 3.1415C283.946 1.11853 286.912 0 289.987 0C293.061 0 296.027 1.11853 298.318 3.1415C331.063 32.0256 357.259 67.4025 375.195 106.959C393.13 146.516 402.401 189.361 402.401 232.695C402.401 276.029 393.13 318.874 375.195 358.431C357.259 397.988 331.063 433.365 298.318 462.249C296.028 464.272 293.061 465.391 289.987 465.391Z" fill="url(#paint2_linear_808_53)" fill-opacity="0.6"/>
<path d="M302.494 392.886C302.544 326.786 327.074 262.98 371.47 213.472C415.865 163.963 477.067 132.161 543.564 124.049C546.629 123.64 549.738 124.377 552.28 126.114C554.823 127.852 556.615 130.464 557.304 133.439C566.829 172.611 567.357 213.389 558.848 252.789C550.338 292.189 533.007 329.213 508.123 361.153C483.239 393.093 451.431 419.14 415.027 437.389C378.623 455.638 338.544 465.626 297.722 466.624L290.003 466.821C298.997 443.211 303.24 418.098 302.494 392.886Z" fill="url(#paint3_linear_808_53)" fill-opacity="0.6"/>
<path d="M281.508 463.544C279.249 461.483 277.84 458.672 277.552 455.65C277.264 452.628 278.116 449.607 279.946 447.167C296.581 424.856 317.807 406.264 342.233 392.61C366.659 378.956 393.734 370.548 421.684 367.938C449.634 365.327 477.827 368.572 504.417 377.461C531.007 386.349 555.393 400.681 575.976 419.516C578.24 421.575 579.654 424.388 579.944 427.413C580.235 430.438 579.382 433.462 577.55 435.905C560.88 458.18 539.646 476.745 515.228 490.396C490.81 504.047 463.754 512.476 435.818 515.137C429.573 515.729 423.402 516 417.207 516C366.903 515.938 318.463 497.213 281.508 463.544Z" fill="url(#paint4_linear_808_53)" fill-opacity="0.6"/>
</g>
<defs>
<filter id="filter0_b_808_53" x="-4.66851" y="-4.66851" width="589.337" height="525.337" filterUnits="userSpaceOnUse" color-interpolation-filters="sRGB">
<feFlood flood-opacity="0" result="BackgroundImageFix"/>
<feGaussianBlur in="BackgroundImageFix" stdDeviation="2.33425"/>
<feComposite in2="SourceAlpha" operator="in" result="effect1_backgroundBlur_808_53"/>
<feBlend mode="normal" in="SourceGraphic" in2="effect1_backgroundBlur_808_53" result="shape"/>
</filter>
<linearGradient id="paint0_linear_808_53" x1="194.421" y1="417.151" x2="571.405" y2="526.689" gradientUnits="userSpaceOnUse">
<stop offset="0.203113" stop-color="#9FE8D6"/>
<stop offset="0.687508" stop-color="#96E0F7" stop-opacity="0.6"/>
<stop offset="1" stop-color="#94CBFF" stop-opacity="0"/>
</linearGradient>
<linearGradient id="paint1_linear_808_53" x1="194.421" y1="417.151" x2="571.405" y2="526.689" gradientUnits="userSpaceOnUse">
<stop offset="0.203113" stop-color="#9FE8D6"/>
<stop offset="0.687508" stop-color="#96E0F7" stop-opacity="0.6"/>
<stop offset="1" stop-color="#94CBFF" stop-opacity="0"/>
</linearGradient>
<linearGradient id="paint2_linear_808_53" x1="194.421" y1="417.151" x2="571.405" y2="526.689" gradientUnits="userSpaceOnUse">
<stop offset="0.203113" stop-color="#9FE8D6"/>
<stop offset="0.687508" stop-color="#96E0F7" stop-opacity="0.6"/>
<stop offset="1" stop-color="#94CBFF" stop-opacity="0"/>
</linearGradient>
<linearGradient id="paint3_linear_808_53" x1="194.421" y1="417.151" x2="571.405" y2="526.689" gradientUnits="userSpaceOnUse">
<stop offset="0.203113" stop-color="#9FE8D6"/>
<stop offset="0.687508" stop-color="#96E0F7" stop-opacity="0.6"/>
<stop offset="1" stop-color="#94CBFF" stop-opacity="0"/>
</linearGradient>
<linearGradient id="paint4_linear_808_53" x1="194.421" y1="417.151" x2="571.405" y2="526.689" gradientUnits="userSpaceOnUse">
<stop offset="0.203113" stop-color="#9FE8D6"/>
<stop offset="0.687508" stop-color="#96E0F7" stop-opacity="0.6"/>
<stop offset="1" stop-color="#94CBFF" stop-opacity="0"/>
</linearGradient>
</defs>
</svg>
